<svg preserveAspectRatio="none" overflow="visible" style="display: block;" width="20" height="20" viewBox="0 0 20 20" fill="none" xmlns="http://www.w3.org/2000/svg">
<g id="prioritization 1">
<path id="Vector" d="M3.833 2.5C3.373 2.5 3 2.873 3 3.333V16.667C3 17.127 3.373 17.5 3.833 17.5H5.5C5.96 17.5 6.333 17.127 6.333 16.667V3.333C6.333 2.873 5.96 2.5 5.5 2.5H3.833Z" fill="#1846D5"/>
<path id="Vector_2" d="M8.833 5.83301C8.373 5.83301 8 6.20601 8 6.66701V16.667C8 17.127 8.373 17.5 8.833 17.5H10.5C10.96 17.5 11.333 17.127 11.333 16.667V6.66701C11.333 6.20601 10.96 5.83301 10.5 5.83301H8.833Z" fill="#1846D5"/>
<path id="Vector_3" d="M13.833 9.16699C13.373 9.16699 13 9.53999 13 9.99999V16.667C13 17.127 13.373 17.5 13.833 17.5H15.5C15.96 17.5 16.333 17.127 16.333 16.667V9.99999C16.333 9.53999 15.96 9.16699 15.5 9.16699H13.833Z" fill="#1846D5"/>
</g>
</svg>
